<?xml version="1.0" encoding="UTF-8" standalone="no"?>
<!-- Created with Inkscape (http://www.inkscape.org/) -->

<svg
   width="32"
   height="32"
   viewBox="0 0 8.4666665 8.4666667"
   version="1.1"
   id="svg1"
   xml:space="preserve"
   inkscape:version="1.4 (e7c3feb100, 2024-10-09)"
   sodipodi:docname="logo.svg"
   xmlns:inkscape="http://www.inkscape.org/namespaces/inkscape"
   xmlns:sodipodi="http://sodipodi.sourceforge.net/DTD/sodipodi-0.dtd"
   xmlns:xlink="http://www.w3.org/1999/xlink"
   xmlns="http://www.w3.org/2000/svg"
   xmlns:svg="http://www.w3.org/2000/svg"><sodipodi:namedview
     id="namedview1"
     pagecolor="#ffffff"
     bordercolor="#000000"
     borderopacity="0.25"
     inkscape:showpageshadow="2"
     inkscape:pageopacity="0.0"
     inkscape:pagecheckerboard="0"
     inkscape:deskcolor="#d1d1d1"
     inkscape:document-units="mm"
     inkscape:zoom="12.65625"
     inkscape:cx="6.9925926"
     inkscape:cy="15.881481"
     inkscape:window-width="1920"
     inkscape:window-height="1016"
     inkscape:window-x="0"
     inkscape:window-y="0"
     inkscape:window-maximized="1"
     inkscape:current-layer="layer2" /><defs
     id="defs1"><linearGradient
       id="linearGradient1"
       inkscape:collect="always"><stop
         style="stop-color:#e98916;stop-opacity:1;"
         offset="0"
         id="stop3" /><stop
         style="stop-color:#e94f16;stop-opacity:1;"
         offset="0.23965763"
         id="stop1" /><stop
         style="stop-color:#6501be;stop-opacity:1;"
         offset="1"
         id="stop2" /></linearGradient><radialGradient
       inkscape:collect="always"
       xlink:href="#linearGradient1"
       id="radialGradient2"
       cx="5.5452228"
       cy="25.773371"
       fx="5.5452228"
       fy="25.773371"
       r="14.554934"
       gradientTransform="matrix(0.59072131,0.00199445,-0.00173148,0.51283576,-1.0356289,-6.1648544)"
       gradientUnits="userSpaceOnUse" /></defs><g
     inkscape:groupmode="layer"
     id="layer2"
     inkscape:label="bg"><rect
       style="fill:#ffffff;fill-opacity:1;stroke:none;stroke-width:0.794279;stroke-linecap:round;stroke-linejoin:round;stroke-dasharray:3.17712, 6.35423;stroke-dashoffset:2.38284"
       id="rect1"
       width="8.4666662"
       height="8.4666662"
       x="0"
       y="0"
       rx="2.0696297"
       ry="2.0696297" /></g><g
     inkscape:label="fore"
     inkscape:groupmode="layer"
     id="layer1"><path
       style="fill:url(#radialGradient2);fill-opacity:1;stroke-width:0.0753611"
       d="M 4.1221969,8.3041014 4.0244357,8.1415404 3.9179517,7.9656124 3.8114674,7.7896854 3.4765873,7.2325814 3.141708,6.6754764 2.9606391,6.3724904 2.7795707,6.0695039 1.6873285,6.0597285 0.59508613,6.0499533 0.71307103,5.8544776 0.83105593,5.6590027 1.3713224,4.7598168 1.9115897,3.8606307 2.9530949,2.1209021 3.9946,0.38117273 4.1091902,0.19058453 4.2237797,-3.7666667e-6 4.2344027,5.5733333e-4 4.2450237,0.00111853 l 0.1881367,0.3198737 0.1881369,0.319874 v 0.036357 0.036356 L 4.3807825,1.1142556 4.1402675,1.514934 3.828839,2.0329433 3.5174114,2.5509527 3.3297165,2.8637126 3.1420211,3.1764736 3.0245692,3.3719485 2.9071163,3.5674234 2.6315514,4.0267903 2.3559859,4.4861572 2.1055839,4.9051384 1.8551816,5.3241209 v 0.026745 0.026746 l 0.1063842,-0.00591 0.1063848,-0.00591 0.2115527,-0.351855 0.211553,-0.3518554 0.1885239,-0.31276 L 2.8681036,4.0365642 3.6955225,2.6584649 4.5229412,1.2803641 4.6370327,1.0897751 4.7511242,0.89918803 h 0.014928 0.014928 L 4.9655481,1.2093984 5.1501164,1.5196103 v 0.043759 0.04376 L 5.0197973,1.8249225 4.8894777,2.0427173 4.7484673,2.2772875 4.6074569,2.5118576 4.4137267,2.8343923 4.2199966,3.156926 4.1025291,3.3524016 3.9850611,3.5478765 3.4481635,4.4428355 2.9112657,5.3377936 l 0.012149,0.01889 0.012146,0.018887 h 0.097216 0.097216 L 3.4310724,4.8722228 3.732153,4.3688743 3.828208,4.2124939 3.9242626,4.0561146 4.5912978,2.9419057 5.2583324,1.8276971 l 0.024104,-0.0256 0.024104,-0.0256 L 5.503038,2.1080441 5.6995354,2.439592 5.6861274,2.475726 5.6727194,2.51186 5.403501,2.9614531 5.1342817,3.4110461 4.6878978,4.1538511 4.2415147,4.8966571 3.9102738,5.4501554 3.579033,6.0036539 3.615171,6.0806749 3.651309,6.1576959 3.676381,6.1776939 3.701456,6.1976919 4.0633584,5.5960414 4.4252618,4.9943913 4.7131949,4.5154768 5.0011298,4.0365629 5.3062373,3.5283282 5.6113441,3.0200923 5.7191438,2.8387948 5.8269439,2.6574972 l 0.0248,0.034691 0.024798,0.034691 0.1757772,0.2962712 0.1757775,0.2962704 v 0.02409 0.024093 L 5.9969662,3.7509499 5.7658387,4.1342981 5.6132521,4.3884153 5.4606655,4.6425333 5.0389364,5.346244 4.6172078,6.0499547 l -0.24202,0.4023257 -0.2420189,0.402326 7.74e-5,0.04727 7.67e-5,0.04727 0.047184,0.07491 0.047184,0.07491 0.708561,-1.179347 0.7085607,-1.1793479 0.3566662,-0.5930495 0.3566669,-0.593049 0.02738,0.035945 0.02738,0.035944 0.171971,0.2861193 0.17197,0.2861184 v 0.031755 0.031754 l -0.324917,0.541728 -0.3249183,0.5417269 0.016993,0.016336 0.016995,0.016336 0.097736,-0.00607 0.097736,-0.00608 0.279731,-0.4654826 0.279731,-0.4654831 0.0861,0.1429489 0.0861,0.1429489 0.108766,0.1788771 0.108767,0.1788769 -2.31e-4,0.036145 -2.31e-4,0.036144 -0.0506,0.085073 -0.0506,0.085071 v 0.027326 0.027326 h 0.139675 0.139677 l 0.204112,0.3419207 0.204112,0.3419138 -1.099016,0.00506 -1.0990181,0.00506 -0.1423892,0.2345702 -0.142389,0.23457 -0.2343795,0.39095 -0.2343794,0.390951 -0.2170182,0.361628 -0.2170196,0.361629 -0.1173167,0.195476 -0.1173177,0.195475 -0.015698,0.01595 -0.015698,0.01596 z"
       id="path2" /></g></svg>
